<?xml version="1.0" encoding="utf-8"?>
<!-- Generator: Adobe Illustrator 26.0.3, SVG Export Plug-In . SVG Version: 6.00 Build 0)  -->
<svg version="1.2" baseProfile="tiny" id="Calque_1"
	 xmlns="http://www.w3.org/2000/svg" xmlns:xlink="http://www.w3.org/1999/xlink" x="0px" y="0px" viewBox="0 0 476.2 198.4"
	 overflow="visible" xml:space="preserve">
<g>
	<path fill="#0075B0" d="M100.8,129.1V87.6h14.5v6.8c1-1.9,2.8-3.7,5.3-5.3c2.6-1.7,5.4-2.5,8.3-2.5c0.7,0,1.4,0.1,1.8,0.2v14
		c-1.7-0.4-3.4-0.7-4.9-0.7c-4.9,0-8.9,2-10.5,5v24.1H100.8z M150.4,129.1V87.6h-14.5v41.5H150.4z M150.4,80.4V68.3h-14.5v12.2
		H150.4z M173.7,129.1v-25.9c1.6-2.5,3.8-3.8,6.6-3.8c3.5,0,5.2,2.2,5.2,6.7v23.1H200v-25.9c1.5-2.5,3.7-3.8,6.5-3.8
		c3.5,0,5.2,2.2,5.2,6.7v23.1h14.5v-25.9c0-10.9-6.1-16.7-14.8-16.7c-5.6,0-10.9,2.9-13.6,6.9c-1.9-3.5-6.1-6.9-11.4-6.9
		c-5.5,0-9.7,2-12.8,6v-4.9h-14.5v41.5H173.7z M271.7,124c4.4-4.2,6.6-9.4,6.6-15.6c0-6.2-2.2-11.4-6.6-15.5
		c-4.4-4.2-10-6.3-16.8-6.3c-6.8,0-12.3,2.1-16.8,6.3c-4.4,4.2-6.6,9.3-6.6,15.5c0,6.2,2.2,11.4,6.6,15.6c4.4,4.2,10,6.2,16.8,6.2
		C261.7,130.2,267.3,128.1,271.7,124z M264.1,108.3c0,5.5-3.8,9.5-9.2,9.5c-5.3,0-9.2-4-9.2-9.5c0-5.3,3.8-9.5,9.2-9.5
		C260.3,98.9,264.1,103,264.1,108.3z M373.6,124c4.4-4.2,6.6-9.4,6.6-15.6c0-6.2-2.2-11.4-6.6-15.5c-4.4-4.2-10-6.3-16.8-6.3
		c-6.8,0-12.3,2.1-16.8,6.3c-4.4,4.2-6.6,9.3-6.6,15.5c0,6.2,2.2,11.4,6.6,15.6c4.4,4.2,10,6.2,16.8,6.2
		C363.6,130.2,369.2,128.1,373.6,124z M366,108.3c0,5.5-3.8,9.5-9.2,9.5c-5.3,0-9.2-4-9.2-9.5c0-5.3,3.8-9.5,9.2-9.5
		C362.1,98.9,366,103,366,108.3z M90.2,74.4c-4.4-4.1-10-6.1-16.8-6.1H49.9v60.9h14.5V80.4l9.1,0c5.3,0,9.2,3.9,9.2,9.3
		c0,5.2-3.8,9.3-9.2,9.3h-2.9v12.1l2.9,0c6.8,0,12.3-2.1,16.8-6.2c4.4-4.1,6.6-9.2,6.6-15.3C96.8,83.7,94.6,78.5,90.2,74.4z
		 M329.9,107.8c0-6.1-2.2-11.2-6.6-15.3c-4.4-4.1-10-6.2-16.8-6.2l-2.9,0v12.1h2.9c5.3,0,9.2,4.1,9.2,9.3c0,5.4-3.8,9.3-9.2,9.3
		l-9.1,0V68.3H283v61h23.6c6.8,0,12.3-2.1,16.8-6.2C327.7,119,329.9,113.9,329.9,107.8z M411.5,96.8l4.2,6l10.7-15.3h-16.1l-2.6,3.8
		L411.5,96.8z M411.5,119.9l-3.9,5.5l2.6,3.8h16.1l-10.7-15.3L411.5,119.9z"/>
	<polygon fill="#5EA7D2" points="403.7,96.8 397.3,87.5 381.2,87.5 395.7,108.3 381.2,129.2 397.3,129.2 403.7,119.9 411.8,108.3 	
		"/>
</g>
<g>
</g>
<g>
</g>
<g>
</g>
<g>
</g>
<g>
</g>
<g>
</g>
</svg>
